<svg xmlns="http://www.w3.org/2000/svg" xmlns:xlink="http://www.w3.org/1999/xlink" width="910.16" height="538.16" data-name="Layer 1"><defs><linearGradient id="a" x1="337.96" x2="337.96" y1="719.08" y2="245.96" gradientUnits="userSpaceOnUse"><stop offset="0" stop-color="gray" stop-opacity=".25"/><stop offset=".54" stop-color="gray" stop-opacity=".12"/><stop offset="1" stop-color="gray" stop-opacity=".1"/></linearGradient><linearGradient id="b" x1="847.04" x2="847.04" y1="711.39" y2="257.5" xlink:href="#a"/><linearGradient id="c" x1="444.71" x2="444.71" y1="141.41" y2="92.33" xlink:href="#a"/><linearGradient id="d" x1="513.95" x2="513.95" y1="183.73" y2="134.64" xlink:href="#a"/><linearGradient id="e" x1="590.89" x2="590.89" y1="129.87" y2="80.79" xlink:href="#a"/><linearGradient id="f" x1="512.88" x2="512.88" y1="49.3" y2=".21" xlink:href="#a"/><linearGradient id="g" x1="436.16" x2="436.16" y1="49.09" xlink:href="#a"/><linearGradient id="h" x1="366.91" x2="366.91" y1="91.4" y2="42.32" xlink:href="#a"/></defs><path fill="#e0e0e0" d="M626.08 298.93h61.06v8.53h-61.06z"/><path fill="url(#a)" d="M377.52 565.7h8.15a28.53 28.53 0 0 0 28.53-28.53V529a28.52 28.52 0 0 0-27.58-28.5 5.19 5.19 0 0 0 3.13-4.77 17 17 0 0 0-.26-2.92 5.18 5.18 0 0 0 .26-1.61 17 17 0 0 0-5-12l-3.11-3.11a13.07 13.07 0 0 0-10.76-3.75 119.59 119.59 0 0 0-17.82 3.66l-77.12-16.76c2.65-16.05 5.27-33.84 6.71-49.12l1.36.91.44-1.32 31.93 25.55s7.7 0 16.3-8.15 57.05-65.2 57.05-65.2l15.64-3.91-1.54 18.73 50-11.24-11.57-54.16-58.48 14.37 4.72 16.42-2.84 11.67-65.2 53L296 375.17l.26-.78-1.75-1.75 1.75-2.33L268 338l2.39-16.74.93-.59.48-3.36h-.84l.13-.94a28.53 28.53 0 0 0 8.49-38.66 14.13 14.13 0 0 0 .37-3.85l-.08-16.29a14.71 14.71 0 0 0-.93-6.19 5.94 5.94 0 0 0-.36-.65 8.38 8.38 0 0 0-.55-1.61c-.89-1.91-2.9-3.47-5-3.13-1.91.31-3.22 2-4.51 3.44a26.14 26.14 0 0 1-27.33 7.06c-2.37-.82-4.66-2-7.16-2.28s-5.37.66-6.39 3c-1.13 2.57.46 5.66-.43 8.32-1.72 5.16-10.41 4.23-13 9-1.18 2.21-.61 4.55.55 6.85.75 2.66 2.78 5.34 4.35 7.77a29.62 29.62 0 0 1 2.21 4.12c2.09 5.68 3 11.89 4.73 17.75a53.25 53.25 0 0 0 2.06 5.72c1.87 5 5.3 11.94 9.68 12.49h.29c-24 9.44-62.9 138-61.22 173.49-.18 4.76.1 8.49.93 10.89l.81.19a107.65 107.65 0 0 0-.81 15.2 36.68 36.68 0 0 0 36.68 36.68h-4.08c-87.78 0-46.17 55.76-65 144.15l385 1.89v7.33c.08-87.75-65.1-153.35-152.87-153.35z" transform="translate(-144.92 -180.92)"/><path fill="#20504f" d="M377.94 530.31L-.01 529.2c21.61-80.11-8.33-140 70.19-148.92h157.73a150 150 0 0 1 150 150z"/><path fill="#fdb797" d="M131.74 226.4l38.47 30.78s7.27 0 15.39-7.69 53.86-61.55 53.86-61.55l15.38-3.86-3.85-23.08-15.39 19.23-61.55 50-38.25-49.35z"/><path d="M151.19 199.68l-3.85-3.84-19.23 30.77 11.54 7.69 11.54-34.62z" opacity=".05"/><path fill="#fdb797" d="M97.33 161.64l3.64-19.88h26.93l-3.85 26.93-26.72-7.05z"/><path fill="#4d8af0" d="M235.61 380.28H74.08a34.62 34.62 0 0 1-34.62-34.62c0-14.87.94-30.78 15.82-30.78l180.38 3.85a26.93 26.93 0 0 1 26.93 26.93v7.69a26.93 26.93 0 0 1-26.98 26.93z"/><path fill="#ccc" d="M120.42 299.7h111.56v19.23H120.42z"/><path d="M124.26 169.76s.21 3.63-22.87-7.91-70.1 145.76-62 169.26c0 0 45.74 11.54 84.63-7.69 0 0 15-73.09 15.39-107.71l11.54-15.39z" opacity=".05"/><path fill="#3ad29f" d="M124.26 165.08s.21 3.63-22.87-7.91-70.1 145.76-62 169.26c0 0 45.74 11.54 84.63-7.69 0 0 15-73.09 15.39-107.71l11.54-15.39z"/><path d="M81.73 226.83l7.69 65.4s-.43 15 30.78 15.39l80.79 3.85s15 7.69 23.08 0 7.69 7.69 7.69 7.69h2.79a4.9 4.9 0 0 0 4.9-4.9 16 16 0 0 0-4.69-11.33l-2.93-2.93a12.33 12.33 0 0 0-10.16-3.54 112.88 112.88 0 0 0-16.84 3.47l-88.48-19.25v-57.7z" opacity=".05"/><path fill="#fdb797" d="M81.73 222.55l7.69 65.4s-.43 15 30.78 15.39l80.79 3.85s15 7.69 23.08 0 7.69 7.69 7.69 7.69h2.79a4.9 4.9 0 0 0 4.9-4.9 16 16 0 0 0-4.69-11.33l-2.93-2.93a12.33 12.33 0 0 0-10.16-3.54 112.88 112.88 0 0 0-16.84 3.47l-88.48-19.23v-57.7z"/><path d="M101.18 150.93a26.94 26.94 0 0 0 26.48-1.93l.45-3.17h-26.93z" opacity=".05"/><circle cx="112.51" cy="122.53" r="26.93" fill="#fdb797"/><path d="M102.93 145.18c.45-2.13.84-4.6-.52-6.3-.8-1-2.06-1.53-3-2.44-3.15-3.19-.38-8.58 2.86-11.67a47.06 47.06 0 0 1 27.1-12.69c1.71-.19 3.58-.35 4.84-1.52 1.51-1.4 1.61-3.72 1.6-5.79l-.07-15.38a13.89 13.89 0 0 0-.87-5.85c-.84-1.8-2.74-3.27-4.7-3-1.8.29-3 1.89-4.26 3.25a24.68 24.68 0 0 1-25.8 6.66c-2.24-.78-4.4-1.89-6.76-2.15s-5.07.63-6 2.8c-1.07 2.42.43 5.34-.4 7.85-1.62 4.87-9.83 4-12.25 8.52-2 3.8 1.42 8 3.76 11.66 4.35 6.74 5.14 15.09 7.4 22.78 1.2 4.09 5 14.39 10.23 15 6.15.92 5.87-7.17 6.84-11.73z" opacity=".05"/><path fill="#333" d="M102.08 143.08c.45-2.13.84-4.6-.52-6.3-.8-1-2.06-1.53-3-2.44-3.15-3.19-.38-8.58 2.86-11.67a47.06 47.06 0 0 1 27.06-12.65c1.71-.19 3.58-.35 4.84-1.52 1.51-1.4 1.61-3.72 1.6-5.79l-.07-15.38a13.89 13.89 0 0 0-.87-5.85c-.84-1.8-2.74-3.27-4.7-3-1.8.29-3 1.89-4.26 3.25a24.68 24.68 0 0 1-25.8 6.66c-2.24-.78-4.4-1.89-6.76-2.15s-5.07.63-6 2.8c-1.07 2.42.43 5.34-.4 7.85-1.62 4.87-9.83 4-12.25 8.52-2 3.8 1.42 8 3.76 11.66 4.35 6.74 5.14 15.09 7.4 22.78 1.2 4.09 5 14.39 10.23 15 6.19.84 5.88-7.25 6.88-11.77z"/><ellipse cx="245.67" cy="313.71" fill="#fdb797" rx="3.85" ry="5.77" transform="rotate(-30 -164.4 493.67)"/><path d="M81.52 222.34l.43 4.27 34.62-3.85-.43-4.27-34.62 3.85zM139.65 211.22l-15.39-46.16 26.93 30.78-11.54 15.38z" opacity=".05"/><path fill="#7cfcff" d="M245.66 144.62l47.86-10.3 9.98 46.34-47.87 10.3z"/><path fill="#fdb797" d="M261.25 171.59l-7.36 2.24c-2 .62-7.14 4.6-6.53 6.62.62 2 6.74 1.35 8.76.74l7.36-2.24a3.86 3.86 0 0 0 2.56-4.8 3.86 3.86 0 0 0-4.79-2.56z"/><path fill="url(#b)" d="M1008.77 560.5h-81.29l3.94-.11a40.76 40.76 0 0 0 28.89-13c8.75-9.49 16.12-24.12 7.6-43.3 0 0-23-100.42-59.14-143.29a21.17 21.17 0 0 0 1.4-9.23c.44-5.66-1.47-11.22-6.35-14.15-3.3-2-7.7-2.79-9.5-6.19a7.61 7.61 0 0 1-.78-2.8c.38-5.21 2.12-10.25 2.8-15.44a26.81 26.81 0 0 0 .19-5.13c.3-5-.73-10.19-4.37-13.46s-3.64-12-8-14c-8.33-3.89-14.17-8.89-20-16s-19.5-8.77-27.71-4.65c-4.43 2.22-7.24 7-11.8 8.92-2.84 1.22-6 1.21-9 2-7.83 2.09-13.38 10.43-12.57 18.43a15.57 15.57 0 0 0 .25 4.7c1 4.59 4.78 6.75 9.88 7.82a28 28 0 0 0 23.72 34.3l1.31 4.57 1.29.07 4.45 15.57h1l-.8.22-4.22 23.77s-16.34 23.41 7.78 47.76l1.11 1.64L796 440.09a24.76 24.76 0 0 0-12.66-4.47l8.64-16.28a2 2 0 0 0-3.59-1.76l-9.69 18.28a24 24 0 0 0-10.72 4.72 2.06 2.06 0 0 0 1.11 3.69c1.43.1 3.1.27 4.87.53l1.09 2.58-1 3a8.79 8.79 0 0 0 8 3.47l4-3.47 10.18 1.28a29.52 29.52 0 0 0 5 .43H864l.15.22h2c3.58 6 6.77 12.11 9.54 17.88L828 488.08h-20.54a9.47 9.47 0 0 0-5.74 1.93c-7.21 5.5-15.06.13-20.17-1a1.77 1.77 0 0 0-1.61 3c13.88 12.88 40 8.08 40 8.08l63.27-12.65a254.3 254.3 0 0 1 3.48 9.13c-13.09 2.27-111.26 19.62-118.69 27.5-8 8.44-16 7.55-28 40l-60 124.31c-11 0-41 10.12-41 21.16v-.16l49.44 2H712l322.77-1.54c1.49 0 0 1.49 0 0-.01-85.84 59.89-149.34-26-149.34zM778 445.54a38.54 38.54 0 0 1 8.39 2.78h-9.86zm35.35 118a154.8 154.8 0 0 0-19 5.11 29 29 0 0 0 1.6-4.64z" transform="translate(-144.92 -180.92)"/><path fill="#20504f" d="M890.62 531.41l-339.14-1.1a153.45 153.45 0 0 1 153.45-153.45h150.88c84.75 0 34.8 69.81 34.8 154.56z"/><path fill="#be7c5e" d="M693.39 153.31l7.7 26.92h26.92l-15.38-38.47-19.24 11.55zM712.63 249.48l-57.7 11.54s-12.94-10.07-27 .47a2 2 0 0 0 1.06 3.55c4.63.34 11.69 1.32 17.23 4.14a30.23 30.23 0 0 0 13.68 3.39h71.92z"/><path fill="#333" d="M539.51 511.5l34.62-.43s76.51-111.56 80.79-130.8l130.42-3.52a39 39 0 0 0 27.57-12.39c8.47-9.12 15.67-23.25 7.43-41.79-15.39-34.62-76.72-7.48-76.72-7.48S635.69 333.68 628 341.8s-15.39 7.28-26.92 38.48z"/><path fill="#f5f5f5" d="M497.2 530.31h76.94l.21-19.45-34.62-3.42c-10.62 0-42.53 12.24-42.53 22.87z"/><path d="M704.72 249.26l15.81 23.51h3.85l-15.39-23.08-4.27-.43z" opacity=".05"/><path fill="#f55f44" d="M701.3 180.45l-4.06 22.87s-15.82 22.65 7.69 46.16 38.47 69.24 38.47 69.24 41.89 19.23 76.94 3.85c0 0-30.78-134.64-76.94-153.88z"/><path fill="#be7c5e" d="M751.08 211.01s22.65 26.5 26.93 84.63l-23.08 7.69-76.94 15.39s-25.16 4.43-38.51-8a1.7 1.7 0 0 1 1.56-2.89c4.9 1.12 12.4 6.47 19.31 1.25a9.33 9.33 0 0 1 5.62-1.93h19.72l61.56-23.07-30.78-61.55z"/><path d="M716.47 222.55l4.06 7.91 34.84-15.18-4.27-4.27-34.63 11.54z" opacity=".05"/><path fill="#f55f44" d="M708.99 222.76l3.85 3.85 50.01-15.39-11.54-7.69-42.32 19.23z"/><path d="M717.03 157.08l-4.4-11-19.24 11.5 2.17 7.6a29 29 0 0 0 2.1.09 26.84 26.84 0 0 0 19.37-8.19z" opacity=".05"/><circle cx="697.67" cy="134.07" r="26.93" fill="#be7c5e"/><path d="M661.98 120.26c-1.71-8.14 3.82-17.13 11.86-19.27 2.87-.77 6-.75 8.69-1.92 4.38-1.88 7.09-6.44 11.35-8.58 7.9-4 21.06-2.36 26.66 4.47s11.23 11.65 19.23 15.39c4.2 2 4.26 10.38 7.7 13.49 4 3.58 4.72 9.59 4 14.9s-2.55 10.45-2.75 15.8a9.37 9.37 0 0 0 .8 4.73c1.72 3.27 6 4.05 9.14 6 9.12 5.48 7.5 20.44-.65 27.28s-19.73 7.53-30.35 7c-5.15-.27-10.41-.79-15.09-3s-8.75-6.27-9.61-11.35a24.51 24.51 0 0 1 .39-7.86l5.31-33.57c.35-2.21.69-4.55-.1-6.64-5.59-15.05-43.29-1.2-46.58-16.87z" opacity=".05"/><path fill="#333" d="M661.98 117.27c-1.71-8.14 3.82-17.13 11.86-19.27 2.87-.77 6-.75 8.69-1.92 4.38-1.88 7.09-6.44 11.35-8.58 7.9-4 21.06-2.36 26.66 4.47s11.23 11.65 19.23 15.39c4.2 2 4.26 10.38 7.7 13.49 4 3.58 4.72 9.59 4 14.9s-2.55 10.45-2.75 15.8a9.37 9.37 0 0 0 .8 4.73c1.72 3.27 6 4.05 9.14 6 9.12 5.48 7.5 20.44-.65 27.28s-19.73 7.53-30.35 7c-5.15-.27-10.41-.79-15.09-3s-8.75-6.27-9.61-11.35a24.51 24.51 0 0 1 .39-7.86l5.31-33.57c.35-2.21.69-4.55-.1-6.64-5.59-15.06-43.29-1.2-46.58-16.87z"/><ellipse cx="707.07" cy="134.28" fill="#be7c5e" rx="5.77" ry="7.69"/><path fill="#4d8af0" d="M632.74 271.6a1.92 1.92 0 0 1-.88-2.57l15.73-29.67a1.92 1.92 0 0 1 2.57-.88 1.92 1.92 0 0 1 .92 2.6l-15.73 29.67a1.92 1.92 0 0 1-2.61.85z"/><rect width="11.54" height="3.85" x="632.06" y="261.23" fill="#be7c5e" rx="1.73" ry="1.73"/><path fill="url(#c)" d="M419.36 92.33h50.7v49.09h-50.7z"/><path fill="#f5f5f5" d="M420.23 93.17h48.96v47.4h-48.96z"/><path fill="url(#d)" d="M488.6 134.64h50.7v49.09h-50.7z"/><path fill="#f5f5f5" d="M489.47 135.49h48.96v47.4h-48.96z"/><path fill="url(#e)" d="M565.54 80.79h50.7v49.09h-50.7z"/><path fill="#f5f5f5" d="M566.41 81.63h48.96v47.4h-48.96z"/><path fill="url(#f)" d="M487.53.21h50.7V49.3h-50.7z"/><path fill="#7cfcff" d="M488.41 1.06h48.96v47.4h-48.96z"/><path fill="url(#g)" d="M410.81 0h50.7v49.09h-50.7z"/><path fill="#ffffa5" d="M411.68.85h48.96v47.4h-48.96z"/><path fill="url(#h)" d="M341.56 42.32h50.7v49.09h-50.7z"/><path fill="#ff69b4" d="M342.44 43.16h48.96v47.4h-48.96z"/></svg>