<svg xmlns="http://www.w3.org/2000/svg" xmlns:xlink="http://www.w3.org/1999/xlink" width="870.71" height="691.21" data-name="Layer 1"><defs><linearGradient id="a" x1="309.27" x2="309.27" y1="560.72" y2="406.06" gradientTransform="matrix(-1 0 0 1 616.6 82.28)" gradientUnits="userSpaceOnUse"><stop offset="0" stop-color="gray" stop-opacity=".25"/><stop offset=".54" stop-color="gray" stop-opacity=".12"/><stop offset="1" stop-color="gray" stop-opacity=".1"/></linearGradient><linearGradient id="b" x1="-175.29" x2="-175.29" y1="157.73" y2="3.07" gradientTransform="matrix(0 -1 -1 0 970.73 29.07)" xlink:href="#a"/><linearGradient id="c" x1="-246.29" x2="-246.29" y1="456.25" y2="301.59" gradientTransform="matrix(0 -1 -1 0 1293.26 304.09)" xlink:href="#a"/><linearGradient id="d" x1="60" x2="60" y1="226.17" y2="71.51" gradientTransform="matrix(-1 0 0 1 436.24 71.59)" xlink:href="#a"/><linearGradient id="e" x1="435.66" x2="435.66" y1="691.21" y2="9.21" xlink:href="#a"/><linearGradient id="f" x1="435.66" x2="435.66" y1="544.71" y2="69.59" xlink:href="#a"/><linearGradient id="g" x1="600.3" x2="600.3" y1="786.69" y2="565.96" xlink:href="#a"/></defs><path fill="url(#a)" d="M181.5 488.34h251.66V643H181.5z" transform="rotate(-16.6 -132.68 1077.92)"/><path fill="#fff" d="M4.02 425.95l233-69.46 41.24 138.32-233 69.46z"/><g fill="#f55f44" opacity=".6"><path d="M53.5 446.53l-29.64 8.84-6.54-21.94 29.64-8.84zM174.73 456.86L60.9 490.8l-2.12-7.12 113.83-33.93zM179.32 472.27l-83 24.74-1.41-4.74 83-24.75z"/></g><path fill="url(#b)" d="M812.99 78.53h154.66v251.66H812.99z" transform="rotate(-78.98 744.66 252.05)"/><path fill="#fff" d="M591.66 146.06l27.6-141.68L857.9 50.85l-27.6 141.68z"/><g fill="#f55f44" opacity=".6"><path d="M653.45 45.55l-30.35-5.91 4.37-22.47 30.36 5.91zM756.07 110.92l-116.59-22.7 1.42-7.29 116.6 22.7zM753 126.71L668 110.16l.95-4.86 85 16.55z"/></g><path fill="url(#c)" d="M837.01 424.55h154.66v251.66H837.01z" transform="rotate(-23.45 580.44 894.79)"/><path fill="#fff" d="M635.84 361.54l132.42-57.44L865 527.15 732.6 584.6z"/><g fill="#47e6b1" opacity=".6"><path d="M753.65 355.65l-12.31-28.38 21-9.1 12.3 28.37zM757.83 477.23l-47.27-108.97 6.81-2.95 47.27 108.97zM743.08 483.63l-34.47-79.46 4.55-1.97 34.46 79.46z"/></g><path fill="url(#d)" d="M250.41 143.1h251.66v154.66H250.41z" transform="rotate(-19.53 -9.4 646.57)"/><path fill="#fff" d="M71.35 87.82L300.49 6.54l48.25 136.03-229.14 81.28z"/><g fill="#6c63ff" opacity=".6"><path d="M121.74 105.9L92.6 116.22l-7.65-21.57 29.15-10.34zM243.33 110.03L131.4 149.74l-2.48-7 111.94-39.7zM248.71 125.18l-81.63 28.96-1.65-4.67 81.63-28.95z"/></g><path fill="url(#e)" d="M435.66 9.21l-293 275.83v406.17h585.99V285.04L435.66 9.21z"/><path fill="#fff" d="M725.68 682.3H145.63V284.38L435.66 14.16l290.02 270.22V682.3z"/><path fill="url(#f)" d="M233.73 69.59h403.85v475.12H233.73z"/><path fill="#fff" d="M238.83 73.55h393.65v471.16H238.83z"/><path fill="#f5f5f5" d="M145.63 284.38l290.03 198.96L145.63 682.3V284.38zM725.68 284.38L435.66 483.34 725.68 682.3V284.38z"/><path fill="url(#g)" d="M310.28 786.69L588.92 569.9a18.39 18.39 0 0 1 22.75 0l278.66 216.79z" transform="translate(-164.65 -104.4)"/><path fill="#fff" d="M145.63 682.29l278.64-207.32a19.06 19.06 0 0 1 22.75 0l278.66 207.32z"/><path fill="#47e6b1" d="M298.56 164.61h82.16v13.86h-82.16z"/><path fill="#f5f5f5" d="M298.56 201.24h274.19v13.86H298.56zM298.56 224.99h274.19v13.86H298.56zM298.56 248.75h274.19v13.86H298.56zM298.56 272.5h274.19v13.86H298.56zM298.56 296.26h124.72v13.86H298.56z"/><path fill="#6c63ff" d="M448.03 296.26h124.72v13.86H448.03z"/></svg>