<svg xmlns="http://www.w3.org/2000/svg" xmlns:xlink="http://www.w3.org/1999/xlink" width="564.9" height="648.11" data-name="Layer 1"><defs><linearGradient id="a" x1="335" x2="335" y1="661.45" y2="421.53" gradientUnits="userSpaceOnUse"><stop offset="0" stop-color="gray" stop-opacity=".25"/><stop offset=".54" stop-color="gray" stop-opacity=".12"/><stop offset="1" stop-color="gray" stop-opacity=".1"/></linearGradient><linearGradient id="d" x1="400.46" x2="400.46" y1="395.09" y2="209.89" xlink:href="#a"/><linearGradient id="b" x1="232.62" x2="498.42" y1="532.26" y2="532.26" gradientUnits="userSpaceOnUse"><stop offset="0" stop-color="#dadada"/><stop offset="1" stop-color="#fff"/></linearGradient><linearGradient id="f" x1="232.62" x2="498.42" y1="574.59" y2="574.59" xlink:href="#b"/><linearGradient id="g" x1="397.92" x2="397.92" y1="858" y2="732.95" xlink:href="#a"/><linearGradient id="h" x1="392.58" x2="392.58" y1="860.42" y2="498.06" gradientTransform="translate(-317.55 -230.89)" xlink:href="#a"/><linearGradient id="c" x1="335" x2="335" y1="661.45" y2="421.53" gradientUnits="userSpaceOnUse" xlink:href="#a"/><linearGradient id="e" x1="232.62" x2="498.42" y1="532.26" y2="532.26" gradientUnits="userSpaceOnUse" xlink:href="#b"/></defs><path fill="url(#c)" d="M105.09 661.45l459.81-7.49V421.53l-459.81 76.34z" transform="translate(0 -209.89)"/><path fill="#6c63ff" d="M554.86 433.9l-444.48 14.11V289.27l444.48-74.08z"/><path fill="url(#d)" d="M240.91 395.09l319.11-68.43V209.89l-319.11 90.84z" transform="translate(0 -209.89)"/><path fill="#fff" d="M247.96 179.91l303.37-70.55V3.53L247.96 91.72z"/><path fill="none" stroke="#dbdbdb" stroke-miterlimit="10" stroke-width="2" d="M297.34 123.31c0 13.11-6.35 25.29-14.11 27.19-7.76 1.9-13.84-7-13.84-19.89s6.16-25 13.84-27.12c7.68-2.12 14.11 6.71 14.11 19.82z"/><path fill="#dbdbdb" d="M323.36 103.37l192.7-52.12V63.5l-192.7 50.69zM323.36 128.06l192.7-52.11v12.24l-192.7 50.69z"/><path fill="#fff" d="M198.57 360.79c0-24.85-11.17-43.47-24.69-41.62-13.25 1.82-23.8 22.68-23.8 46.63 0 23.95 10.55 42.63 23.8 41.71 13.57-.94 24.69-21.86 24.69-46.72z"/><path fill="url(#e)" d="M232.62 540.34l265.8-32.66v19.7l-265.8 29.47z" transform="translate(0 -209.89)"/><path fill="url(#f)" d="M232.62 582.67l265.8-32.66v19.7l-265.8 29.47z" transform="translate(0 -209.89)"/><path fill="url(#g)" d="M239.14 828.63L556.69 858l-3.53-121.36-314.02-3.69z" transform="translate(0 -209.89)"/><path fill="#fff" d="M247.96 613.81l303.37 24.69V532.67l-303.37-3.53z"/><path fill="none" stroke="#dbdbdb" stroke-miterlimit="10" stroke-width="2" d="M300.87 575.75c0 13.08-6.35 23.24-14.11 22.7-7.76-.54-13.83-11.34-13.83-24.18s6.16-23 13.84-22.71c7.68.29 14.1 11.11 14.1 24.19z"/><path fill="#dbdbdb" d="M329.63 558.56l186.43 7.53v12.44l-186.43-8.93zM329.63 583.25l186.43 7.53v12.44l-186.43-8.93z"/><path fill="url(#h)" d="M121.95 612.76l-9.45-6.44-15.14-57.35 3.06-3.31s0-18.5-4.31-30.71c2.67-1.69 4.34-2.84 4.34-2.84-9.22-8.39-9.22-39.14-9.22-39.14s-3.91-23.68-11.72-45.61l14.79 3.67 21.52-47.53v-11.2l9.22-5.59s-12.3-16.78-24.6 0c0 0 3.07 11.18 0 16.78-3.07 5.6-12.3 25.16-12.3 25.16h-7.83l1.68-8.39H65.92c-.78-1-1.57-1.93-2.38-2.8l12.3-25.16-5.76-3.93 21.14-24 3.07-50.33c12.22-3.7 15-14.77 15.48-21.82.22-3.22-3.12-5.67-6.56-4.87-26.54 6.19-21.21 18.3-21.21 18.3l-9.24 47.46-12.71 18.21c-1.54-8.33-7.56-15.25-15.75-18.67l6.94-7.89s-15.69-3.81-30.6 1.35c-27.55 9.52-27.49 46 0 55.57a30.11 30.11 0 0 0 12.14 1.8v-2.8c.39 0 .77 0 1.15-.05-.47 2.6-.91 5.54-1.14 8.44-6.15 0-6.15 30.76 3.07 36.35l-3.07 30.76v16.78c6.15 14 18.45 14 18.45 14l9.21 39.15c2.92 1.33 6.72 1.23 10.8.31l1.49 10.87s-27.67 19.57-27.67 47.53l-1 1.83-2.07-1.83-18.45 14 24.6 28h24.6c6.15-14-18.45-16.78-18.45-16.78l-.12-14.37 24.93-26.92c4.23 11.25 11.77 29.95 18 38l-2.81.51v22.37h52.25c15.37-19.67-24.6-16.87-24.6-16.87z"/><path fill="#f6b9ad" d="M40.26 374.54s-6.1 25.62 0 29.28l18.3-11-12.2-23.18z"/><path fill="#b98b82" d="M107.74 600.67l-16.16-67.34-16.13 21.54s13.47 43.1 21.55 48.48z"/><path fill="#f6b9ad" d="M118.52 369.02s-10.77-16.16-21.55 0c0 0 2.69 10.77 0 16.16-2.69 5.39-10.77 24.24-10.77 24.24H61.95v13.47l29.63 8.08 18.87-45.79V374.4z"/><path fill="#5989a1" d="M53.87 425.58v-24.24h26.94l-5.39 29.63z"/><circle cx="37.71" cy="358.24" r="24.24" fill="#f6b9ad"/><path fill="#3d213c" d="M32.32 355.55l21.55-26.94s-13.75-3.67-26.81 1.3c-24.13 9.17-24.09 44.27 0 53.53a24.15 24.15 0 0 0 10.63 1.74v-16.16h-8.08z"/><path fill="#f6b9ad" d="M91.58 298.98l-2.69 48.48-21.55 26.94-13.47-8.08 18.86-29.63 8.08-45.79s-4.67-11.67 18.59-17.63a4.59 4.59 0 0 1 5.75 4.69c-.43 6.79-2.86 17.45-13.57 21.02zM70.03 511.78l2.69 21.55s-24.27 18.85-24.27 45.78l-2.69 5.39 8.08 8.08 43.1-51.18s0-29.63-8.08-37.71z"/><path fill="#6c63ff" d="M56.45 589.52l.11 13.84s21.55 2.69 16.16 16.16H51.18l-21.55-26.94 16.16-13.47zM105.05 597.97l10.77 8.08s35-2.69 21.55 16.16H91.58v-21.54zM96.97 509.11s-24.24 18.86-35 13.47l-8.08-37.71s-10.77 0-16.16-13.47v-16.19l51.18 16.16s-.02 29.63 8.06 37.74z"/><path fill="#76b6d7" d="M75.45 374.4L53.9 358.24s-10.77 32.32-16.16 32.32c-5.39 0-5.39 29.63 2.69 35l-2.69 29.63 51.18 16.16s-8.08-53.87-24.24-72.73z"/><path fill="#47e6b1" d="M270.45 125.95l6.16-.94 6.16 6.15 7.1-13.26h7.58l-14.68 18.47z"/><path fill="#6c63ff" d="M172.07 370.76l11.31-21.12h12.07l-23.38 29.42-19.62-16.6 9.81-1.51z"/><path d="M172.07 370.76l11.31-21.12h12.07l-23.38 29.42-19.62-16.6 9.81-1.51z" opacity=".2"/></svg>