<svg xmlns="http://www.w3.org/2000/svg" xmlns:xlink="http://www.w3.org/1999/xlink" width="882.5" height="686.51" data-name="Layer 1"><defs><linearGradient id="c" x1="-121.09" x2="-121.09" y1="464.11" y2="77.38" gradientTransform="translate(704.36 124.53)" gradientUnits="userSpaceOnUse"><stop offset="0" stop-color="gray" stop-opacity=".25"/><stop offset=".54" stop-color="gray" stop-opacity=".12"/><stop offset="1" stop-color="gray" stop-opacity=".1"/></linearGradient><linearGradient id="a" x1="-402.3" x2="-402.3" y1="269.44" y2="170.67" gradientTransform="rotate(-15.27 695.59 -2294.21)" gradientUnits="userSpaceOnUse"><stop offset="0" stop-opacity=".12"/><stop offset=".55" stop-opacity=".09"/><stop offset="1" stop-opacity=".02"/></linearGradient><linearGradient id="d" x1="-402.3" x2="-402.3" y1="252.79" y2="231.21" gradientTransform="translate(706.72 199.61)" xlink:href="#a"/><linearGradient id="e" x1="-402.26" x2="-402.26" y1="234.11" y2="194.99" gradientTransform="translate(699.49 200.57)" xlink:href="#a"/><linearGradient id="f" x1="-402.3" x2="-402.3" y1="272.44" y2="239.1" xlink:href="#a"/><linearGradient id="g" x1="-402.26" x2="-402.26" y1="216.85" y2="180.15" xlink:href="#a"/><linearGradient id="b" x1="-261.96" x2="-229.82" y1="207" y2="207" gradientTransform="translate(691.98 159.65)" gradientUnits="userSpaceOnUse"><stop offset="0" stop-opacity=".09"/><stop offset=".55" stop-opacity=".07"/><stop offset="1" stop-opacity=".02"/></linearGradient><linearGradient id="h" x1="-91.63" x2="-59.49" y1="207" y2="207" gradientTransform="translate(685.97 114.79)" xlink:href="#b"/><linearGradient id="i" x1="84.06" x2="116.2" y1="207" y2="207" gradientTransform="translate(679.76 68.52)" xlink:href="#b"/><linearGradient id="j" x1="-261.96" x2="-229.82" y1="370.91" y2="370.91" gradientTransform="translate(735.15 153.86)" xlink:href="#b"/><linearGradient id="k" x1="-91.63" x2="-59.49" y1="370.91" y2="370.91" gradientTransform="translate(729.13 109)" xlink:href="#b"/><linearGradient id="l" x1="84.06" x2="116.2" y1="370.91" y2="370.91" gradientTransform="translate(722.93 62.73)" xlink:href="#b"/><linearGradient id="m" x1="495.23" x2="495.23" y1="686.51" y2="299.78" xlink:href="#c"/><linearGradient id="n" x1="372.77" x2="372.77" y1="598.59" y2="499.81" xlink:href="#a"/><linearGradient id="o" x1="214.02" x2="214.02" y1="475.19" y2="453.62" xlink:href="#a"/><linearGradient id="p" x1="214.05" x2="214.05" y1="456.51" y2="417.4" xlink:href="#a"/><linearGradient id="q" x1="372.77" x2="372.77" y1="601.58" y2="568.25" xlink:href="#a"/><linearGradient id="r" x1="372.81" x2="372.81" y1="545.99" y2="509.29" xlink:href="#a"/></defs><path fill="#f5f5f5" d="M5.26 203.05L743.16 1.6l99.41 364.16-737.9 201.45z"/><path fill="url(#c)" d="M196.01 201.91h774.54v386.73H196.01z" transform="rotate(-15.27 105.76 934.03)"/><path fill="#fff" d="M15.29 239.79l737.9-201.45 89.31 327.18-737.9 201.45z"/><circle cx="186.41" cy="322.7" r="9.64" fill="#ff5252" transform="rotate(-15.2 -294.06 873.04)"/><circle cx="214.31" cy="315.08" r="9.64" fill="#ff0" transform="rotate(-15.27 -263.22 853.85)"/><circle cx="242.22" cy="307.46" r="9.64" fill="#69f0ae" transform="rotate(-15.27 -235.32 846.24)"/><path fill="#6c63ff" d="M15.16 239.35l194.3-53.04 89.43 327.61-194.29 53.04z"/><path fill="url(#a)" d="M350.71 407.77c-7.4-27.11-36.54-42.77-65.07-35S240 408.88 247.36 436c5.81 21.28 25 35.5 46.79 36.87l-3.45-12.65c-2.5-9.14 3.34-18.77 13-21.4 9.62-2.63 19.54 2.7 22 11.85l3.45 12.65c18.06-12.27 27.37-34.32 21.56-55.55z" transform="translate(-158.75 -106.74)"/><rect width="6.44" height="21.58" x="301.2" y="430.82" fill="url(#d)" rx="2.86" ry="2.86" transform="rotate(-15.27 -173.11 980.37)"/><ellipse cx="297.22" cy="415.12" fill="url(#e)" rx="20.59" ry="19.56" transform="rotate(-15.27 -180.3 953.9)"/><path fill="url(#f)" d="M303.66 438.81c-9.62 2.63-15.45 12.26-13 21.4l3.45 12.65a56.43 56.43 0 0 0 35-9.55l-3.45-12.65c-2.46-9.14-12.38-14.47-22-11.85z" transform="translate(-158.75 -106.74)"/><path fill="url(#g)" d="M276.91 419.54a18.18 18.18 0 0 1-4.71-8.91 12.92 12.92 0 0 1 2.05-9.81c2.25-3.13 6-5 9.66-6.35s7.6-2.2 11.14-3.91a24.69 24.69 0 0 0 12.5-13.91 29.89 29.89 0 0 1 2.18 8.33 10.56 10.56 0 0 1-2.65 8.1c2.65-2.15 3.18 1 3 3.09 2 1.31 5.67.6 6.46 2.77a13.8 13.8 0 0 1 1 6.76c-.35 2.29 1.61 5.64-.68 6.43" transform="translate(-158.75 -106.74)"/><path fill="#6c63ff" d="M187.36 294.51a50.89 50.89 0 1 0-53.11 64.15l-3.45-12.65a17.28 17.28 0 0 1 12.08-21.16 17.28 17.28 0 0 1 21.16 12.08l3.45 12.65a50.9 50.9 0 0 0 19.87-55.07z"/><rect width="6.12" height="21.58" x="299.35" y="423.6" fill="#fff" stroke="#fff" stroke-miterlimit="10" rx="2.86" ry="2.86" transform="rotate(-15.27 -175.1 973.16)"/><circle cx="295.21" cy="407.9" r="19.56" fill="#fff" stroke="#fff" stroke-miterlimit="10" transform="rotate(-15.27 -182.3 946.68)"/><path fill="#fff" stroke="#fff" stroke-miterlimit="10" d="M142.89 324.85a17.28 17.28 0 0 0-12.08 21.16l3.44 12.65a51.08 51.08 0 0 0 33.24-9.08l-3.45-12.65a17.28 17.28 0 0 0-21.15-12.08zM117.14 305.26a19 19 0 0 1-4.6-8.94 13.16 13.16 0 0 1 1.83-9.75c2.11-3.09 5.61-4.94 9.13-6.21s7.22-2.09 10.57-3.76a23.39 23.39 0 0 0 11.74-13.71 31.45 31.45 0 0 1 2.19 8.33 10.61 10.61 0 0 1-2.43 8c2.5-2.11 3 1.08 2.93 3.12 1.89 1.33 5.42.67 6.2 2.84a14.47 14.47 0 0 1 1.07 6.75c-.31 2.28 1.61 5.64-.57 6.4"/><path fill="#fff" d="M146.49 278.57s13.48-2.45 9.44 19.65"/><path d="M59.37 403.3l194.3-53.05 44.57 163.29-194.29 53.04z" opacity=".1"/><path fill="#fff" d="M106.17 428.29l95.08-25.96 2.54 9.3-95.08 25.96zM112.1 449.99l117.81-32.17 2.54 9.3-117.82 32.17z"/><path fill="#f5f5f5" d="M248.05 197.35l140.54-38.37 18.9 69.24-140.54 38.37z"/><path fill="#e0e0e0" d="M266.39 264.51l140.55-38.37 18.9 69.25-140.55 38.37z"/><path fill="#f5f5f5" d="M581.86 106.22l140.55-38.37 18.9 69.24-140.54 38.37z"/><path fill="#e0e0e0" d="M600.2 173.39l140.54-38.37 18.9 69.24-140.54 38.37z"/><path fill="#f5f5f5" d="M414.44 151.92l140.54-38.37 18.9 69.24-140.54 38.37z"/><path fill="#e0e0e0" d="M432.77 219.1l140.55-38.37 18.9 69.24-140.54 38.37zM287.3 353.9l139.87-37.88 18.66 68.9-139.86 37.88z"/><path fill="#bdbdbd" d="M309.27 421.6l140.54-38.36 18.9 69.24-140.54 38.37z"/><path fill="#f5f5f5" d="M624.74 263.3l140.54-38.37 18.9 69.25-140.54 38.37z"/><path fill="#bdbdbd" d="M643.08 330.48l140.55-38.37 18.9 69.24L662 399.72z"/><path fill="#f5f5f5" d="M457.32 309l140.54-38.36 18.9 69.24-140.54 38.37z"/><path fill="#bdbdbd" d="M475.66 376.18L616.2 337.8l18.9 69.24-140.55 38.37z"/><ellipse cx="446.09" cy="366.65" fill="url(#b)" rx="16.07" ry="15" transform="rotate(-15.27 -31.42 905.43)"/><circle cx="445.81" cy="365.62" r="13.93" fill="#6c63ff" transform="rotate(-15.2 -31.2 916.27)"/><ellipse cx="610.41" cy="321.79" fill="url(#h)" rx="16.07" ry="15" transform="rotate(-15.27 132.89 860.55)"/><circle cx="610.13" cy="320.76" r="13.93" fill="#6c63ff" transform="rotate(-15.27 132.6 859.53)"/><ellipse cx="779.9" cy="275.52" fill="url(#i)" rx="16.07" ry="15" transform="rotate(-15.27 302.36 814.28)"/><circle cx="779.62" cy="274.49" r="13.93" fill="#6c63ff" transform="rotate(-15.27 302.08 813.25)"/><ellipse cx="489.26" cy="524.77" fill="url(#j)" rx="16.07" ry="15" transform="rotate(-15.27 11.74 1063.55)"/><circle cx="488.97" cy="523.74" r="13.93" fill="#2196f3" transform="rotate(-15.27 11.46 1062.49)"/><ellipse cx="653.58" cy="479.91" fill="url(#k)" rx="16.07" ry="15" transform="rotate(-15.27 176.05 1018.67)"/><circle cx="653.29" cy="478.88" r="13.93" fill="#2196f3" transform="rotate(-15.27 175.77 1017.65)"/><ellipse cx="823.06" cy="433.64" fill="url(#l)" rx="16.07" ry="15" transform="rotate(-15.27 345.52 972.4)"/><circle cx="822.78" cy="432.61" r="13.93" fill="#2196f3" transform="rotate(-15.27 345.24 971.37)"/><path fill="#f5f5f5" d="M113.28 300.25h764.9v377.49h-764.9z"/><path fill="url(#m)" d="M107.96 299.78H882.5v386.73H107.96z"/><path fill="#fff" d="M113.28 338.35h764.9V677.5h-764.9z"/><circle cx="131.49" cy="318.61" r="9.64" fill="#ff5252"/><circle cx="160.41" cy="318.61" r="9.64" fill="#ff0"/><circle cx="189.34" cy="318.61" r="9.64" fill="#69f0ae"/><path fill="#6c63ff" d="M113.28 337.9h201.4v339.6h-201.4z"/><path fill="url(#n)" d="M426.33 550.7c0-28.1-24-50.89-53.56-50.89s-53.57 22.78-53.57 50.89c0 22.06 14.77 40.83 35.43 47.89v-13.11c0-9.48 8.16-17.23 18.14-17.23 10 0 18.14 7.75 18.14 17.23v13.11c20.65-7.06 35.42-25.84 35.42-47.89z" transform="translate(-158.75 -106.74)"/><rect width="6.44" height="21.58" x="210.79" y="453.62" fill="url(#o)" rx="2.86" ry="2.86"/><ellipse cx="214.05" cy="436.96" fill="url(#p)" rx="20.59" ry="19.56"/><path fill="url(#q)" d="M372.77 568.25c-10 0-18.14 7.75-18.14 17.23v13.11a56.43 56.43 0 0 0 36.27 0v-13.11c0-9.48-8.16-17.23-18.13-17.23z" transform="translate(-158.75 -106.74)"/><path fill="url(#r)" d="M352 542.61a18.18 18.18 0 0 1-2.2-9.84 12.92 12.92 0 0 1 4.56-8.92c3-2.43 7.07-3.29 11-3.59s7.91-.12 11.78-.84a24.69 24.69 0 0 0 15.72-10.13 29.89 29.89 0 0 1-.09 8.61 10.56 10.56 0 0 1-4.69 7.11c3.13-1.37 2.79 1.85 2.11 3.78 1.55 1.78 5.32 2.07 5.51 4.37a13.8 13.8 0 0 1-.79 6.8c-.95 2.12.07 5.86-2.35 6" transform="translate(-158.75 -106.74)"/><path fill="#6c63ff" d="M264.86 436.46a50.89 50.89 0 1 0-68.12 47.89v-13.09a17.28 17.28 0 0 1 17.23-17.23 17.28 17.28 0 0 1 17.28 17.23v13.11a50.9 50.9 0 0 0 33.61-47.91z"/><rect width="6.12" height="21.58" x="210.92" y="446.12" fill="#fff" stroke="#fff" stroke-miterlimit="10" rx="2.86" ry="2.86"/><circle cx="214.01" cy="429.46" r="19.56" fill="#fff" stroke="#fff" stroke-miterlimit="10"/><path fill="#fff" stroke="#fff" stroke-miterlimit="10" d="M213.98 454.01a17.28 17.28 0 0 0-17.23 17.25v13.11a51.08 51.08 0 0 0 34.46 0v-13.11a17.28 17.28 0 0 0-17.23-17.25zM194.25 428.38a19 19 0 0 1-2.09-9.84 13.16 13.16 0 0 1 4.34-8.92c2.85-2.43 6.71-3.29 10.44-3.59s7.51-.12 11.19-.84a23.39 23.39 0 0 0 14.94-10.13 31.45 31.45 0 0 1-.08 8.61 10.61 10.61 0 0 1-4.46 7.11c3-1.37 2.65 1.85 2 3.78 1.47 1.78 5 2.07 5.23 4.37a14.47 14.47 0 0 1-.75 6.8c-.9 2.12.06 5.86-2.23 6"/><path fill="#fff" d="M229.64 410.26s13.65 1.19 3.93 21.45"/><path d="M112.74 507.7h201.4v169.26h-201.4z" opacity=".1"/><path fill="#fff" d="M151.31 544.12h98.56v9.64h-98.56z"/><path fill="#bdbdbd" d="M390.2 395.21h98.56v9.64H390.2z"/><path fill="#e0e0e0" d="M390.2 453.06h352.45v9.64H390.2zM390.2 510.91h352.45v9.64H390.2z"/><path fill="#64ffda" d="M390.2 568.76h98.56v9.64H390.2z"/><path fill="#f5f5f5" d="M516.61 568.76h98.56v9.64h-98.56z"/><path fill="#64ffda" d="M644.1 568.76h98.56v9.64H644.1z"/><path fill="#fff" d="M151.31 566.62h122.13v9.64H151.31z"/></svg>